# Blender 4.1.1
# www.blender.org
mtllib EffectObj.mtl
o SlashMesh.001
v 0.000000 0.010251 -1.000568
v 0.195090 -0.203737 -0.980785
v 0.195312 0.224240 -0.981900
v 0.382683 -0.203737 -0.923879
v 0.383119 0.224240 -0.924930
v 0.555570 -0.203737 -0.831470
v 0.556202 0.224240 -0.832415
v 0.707107 -0.203737 -0.707107
v 0.707911 0.224240 -0.707911
v 0.831470 -0.203737 -0.555570
v 0.832415 0.224240 -0.556202
v 0.923880 -0.203737 -0.382683
v 0.924930 0.224240 -0.383119
v 0.980785 -0.203737 -0.195090
v 0.981900 0.224240 -0.195312
v 1.000000 -0.203737 0.000000
v 1.001137 0.224240 -0.000000
v 0.980785 -0.203737 0.195090
v 0.981900 0.224240 0.195312
v 0.923880 -0.203737 0.382683
v 0.924930 0.224240 0.383119
v 0.831470 -0.203737 0.555570
v 0.832415 0.224240 0.556202
v 0.707107 -0.203737 0.707107
v 0.707911 0.224240 0.707911
v 0.555570 -0.203737 0.831470
v 0.556202 0.224240 0.832415
v 0.382683 -0.203737 0.923880
v 0.383119 0.224240 0.924930
v 0.195090 -0.203737 0.980785
v 0.195312 0.224240 0.981900
v 0.000000 0.010251 1.000568
v 0.000000 0.015129 -1.673816
v 0.321994 0.197951 -1.618773
v 0.631614 0.197951 -1.524850
v 0.916961 0.197951 -1.372329
v 1.167070 0.197951 -1.167070
v 1.372329 0.197951 -0.916961
v 1.524850 0.197951 -0.631614
v 1.618773 0.197951 -0.321994
v 1.650486 0.197951 -0.000000
v 1.618773 0.197951 0.321994
v 1.524850 0.197951 0.631614
v 1.372329 0.197951 0.916961
v 1.167070 0.197951 1.167070
v 0.916961 0.197951 1.372329
v 0.631614 0.197951 1.524850
v 0.321994 0.197951 1.618773
v 0.000000 0.015130 1.673816
v 0.466851 0.013679 -2.347019
v 0.915761 0.013679 -2.210844
v 1.329480 0.013679 -1.989707
v 1.692106 0.013679 -1.692106
v 1.989707 0.013679 -1.329480
v 2.210844 0.013679 -0.915761
v 2.347019 0.013679 -0.466851
v 2.393000 0.013679 0.000000
v 2.347019 0.013679 0.466851
v 2.210844 0.013679 0.915761
v 1.989707 0.013679 1.329480
v 1.692106 0.013679 1.692106
v 1.329480 0.013679 1.989707
v 0.915761 0.013679 2.210844
v 0.466851 0.013679 2.347019
v 0.000000 0.013679 2.393000
v 0.000000 0.013679 -2.393000
v 0.331097 -0.167693 -1.664535
v 0.649469 -0.167693 -1.567958
v 0.942883 -0.167693 -1.411125
v 1.200063 -0.167692 -1.200063
v 1.411125 -0.167692 -0.942883
v 1.567958 -0.167692 -0.649469
v 1.664535 -0.167692 -0.331097
v 1.697145 -0.167692 0.000000
v 1.664535 -0.167692 0.331097
v 1.567958 -0.167692 0.649469
v 1.411125 -0.167692 0.942883
v 1.200063 -0.167692 1.200063
v 0.942883 -0.167692 1.411125
v 0.649469 -0.167692 1.567958
v 0.331097 -0.167692 1.664535
vn 0.2355 0.0032 -0.9719
vn 0.1225 0.0065 -0.9924
vn 0.0078 0.9992 -0.0397
vn 0.0287 0.9891 -0.1447
vn 0.0155 0.9992 -0.0374
vn 0.0565 0.9891 -0.1363
vn 0.0225 0.9992 -0.0336
vn 0.0820 0.9891 -0.1227
vn 0.0286 0.9992 -0.0286
vn 0.1043 0.9891 -0.1043
vn 0.0336 0.9992 -0.0225
vn 0.1227 0.9891 -0.0820
vn 0.0374 0.9992 -0.0155
vn 0.1363 0.9891 -0.0565
vn 0.0397 0.9992 -0.0079
vn 0.1447 0.9891 -0.0288
vn 0.0405 0.9992 -0.0000
vn 0.1476 0.9891 -0.0000
vn 0.0397 0.9992 0.0079
vn 0.1447 0.9891 0.0288
vn 0.0374 0.9992 0.0155
vn 0.1363 0.9891 0.0565
vn 0.0336 0.9992 0.0225
vn 0.1227 0.9891 0.0820
vn 0.0286 0.9992 0.0286
vn 0.1043 0.9891 0.1043
vn 0.0225 0.9992 0.0336
vn 0.0820 0.9891 0.1227
vn 0.0155 0.9992 0.0374
vn 0.0565 0.9891 0.1363
vn 0.0077 0.9992 0.0396
vn 0.0286 0.9891 0.1447
vn 0.1226 0.0065 0.9924
vn 0.2356 0.0032 0.9718
vn 0.1951 0.0055 0.9808
vn -0.0000 0.0048 1.0000
vn 0.3827 0.0055 0.9239
vn 0.5556 0.0055 0.8315
vn 0.7071 0.0055 0.7071
vn 0.8315 0.0055 0.5556
vn 0.9239 0.0055 0.3827
vn 0.9808 0.0055 0.1951
vn 1.0000 0.0055 -0.0000
vn 0.9808 0.0055 -0.1951
vn 0.9239 0.0055 -0.3827
vn 0.8315 0.0055 -0.5556
vn 0.7071 0.0055 -0.7071
vn 0.5556 0.0055 -0.8315
vn 0.3827 0.0055 -0.9239
vn 0.1951 0.0055 -0.9808
vn -0.0000 0.0055 -1.0000
vn 0.0309 -0.9873 -0.1558
vn 0.0608 -0.9873 -0.1468
vn 0.0883 -0.9873 -0.1321
vn 0.1124 -0.9873 -0.1124
vn 0.1321 -0.9873 -0.0883
vn 0.1468 -0.9873 -0.0608
vn 0.1558 -0.9873 -0.0310
vn 0.1589 -0.9873 -0.0000
vn 0.1558 -0.9873 0.0310
vn 0.1468 -0.9873 0.0608
vn 0.1321 -0.9873 0.0883
vn 0.1124 -0.9873 0.1124
vn 0.0883 -0.9873 0.1321
vn 0.0608 -0.9873 0.1468
vn 0.0308 -0.9873 0.1558
vn 0.0098 -0.9987 0.0506
vn 0.0198 -0.9987 0.0477
vn 0.0287 -0.9987 0.0429
vn 0.0365 -0.9987 0.0365
vn 0.0429 -0.9987 0.0287
vn 0.0477 -0.9987 0.0198
vn 0.0506 -0.9987 0.0101
vn 0.0516 -0.9987 -0.0000
vn 0.0506 -0.9987 -0.0101
vn 0.0477 -0.9987 -0.0198
vn 0.0429 -0.9987 -0.0287
vn 0.0365 -0.9987 -0.0365
vn 0.0287 -0.9987 -0.0429
vn 0.0198 -0.9987 -0.0477
vn 0.0100 -0.9987 -0.0506
vt 1.000000 0.769311
vt 1.000000 1.000000
vt 0.968750 1.000000
vt 0.968750 0.769311
vt 0.937500 1.000000
vt 0.937500 0.769311
vt 0.906250 1.000000
vt 0.906250 0.769311
vt 0.875000 1.000000
vt 0.875000 0.769311
vt 0.843750 1.000000
vt 0.843750 0.769311
vt 0.812500 1.000000
vt 0.812500 0.769311
vt 0.781250 1.000000
vt 0.781250 0.769311
vt 0.750000 1.000000
vt 0.750000 0.769311
vt 0.718750 1.000000
vt 0.718750 0.769311
vt 0.687500 1.000000
vt 0.687500 0.769311
vt 0.656250 1.000000
vt 0.656250 0.769311
vt 0.625000 1.000000
vt 0.625000 0.769311
vt 0.593750 1.000000
vt 0.593750 0.769311
vt 0.562500 1.000000
vt 0.562500 0.769311
vt 0.531250 1.000000
vt 0.531250 0.769311
vt 0.500000 1.000000
vt 0.500000 0.769311
vt 0.531250 0.508293
vt 0.500000 0.508293
vt 0.562500 0.508293
vt 0.593750 0.508293
vt 0.625000 0.508293
vt 0.656250 0.508293
vt 0.687500 0.508293
vt 0.718750 0.508293
vt 0.750000 0.508293
vt 0.781250 0.508293
vt 0.812500 0.508293
vt 0.843750 0.508293
vt 0.875000 0.508293
vt 0.906250 0.508293
vt 0.937500 0.508293
vt 0.968750 0.508293
vt 1.000000 0.508293
vt 1.000000 0.258447
vt 0.968750 0.258447
vt 0.937500 0.258447
vt 0.906250 0.258447
vt 0.875000 0.258447
vt 0.843750 0.258447
vt 0.812500 0.258447
vt 0.781250 0.258447
vt 0.750000 0.258447
vt 0.718750 0.258447
vt 0.687500 0.258447
vt 0.656250 0.258447
vt 0.625000 0.258447
vt 0.593750 0.258447
vt 0.562500 0.258447
vt 0.531250 0.258447
vt 0.500000 0.258447
vt 0.531250 0.000000
vt 0.500000 0.000000
vt 0.562500 0.000000
vt 0.593750 0.000000
vt 0.625000 0.000000
vt 0.656250 0.000000
vt 0.687500 0.000000
vt 0.718750 0.000000
vt 0.750000 0.000000
vt 0.781250 0.000000
vt 0.812500 0.000000
vt 0.843750 0.000000
vt 0.875000 0.000000
vt 0.906250 0.000000
vt 0.937500 0.000000
vt 0.968750 0.000000
vt 1.000000 0.000000
s 1
f 33/1/1 1/2/2 3/3/3 34/4/4
f 34/4/4 3/3/3 5/5/5 35/6/6
f 35/6/6 5/5/5 7/7/7 36/8/8
f 36/8/8 7/7/7 9/9/9 37/10/10
f 37/10/10 9/9/9 11/11/11 38/12/12
f 38/12/12 11/11/11 13/13/13 39/14/14
f 39/14/14 13/13/13 15/15/15 40/16/16
f 40/16/16 15/15/15 17/17/17 41/18/18
f 41/18/18 17/17/17 19/19/19 42/20/20
f 42/20/20 19/19/19 21/21/21 43/22/22
f 43/22/22 21/21/21 23/23/23 44/24/24
f 44/24/24 23/23/23 25/25/25 45/26/26
f 45/26/26 25/25/25 27/27/27 46/28/28
f 46/28/28 27/27/27 29/29/29 47/30/30
f 47/30/30 29/29/29 31/31/31 48/32/32
f 48/32/32 31/31/31 32/33/33 49/34/34
f 64/35/35 48/32/32 49/34/34 65/36/36
f 63/37/37 47/30/30 48/32/32 64/35/35
f 62/38/38 46/28/28 47/30/30 63/37/37
f 61/39/39 45/26/26 46/28/28 62/38/38
f 60/40/40 44/24/24 45/26/26 61/39/39
f 59/41/41 43/22/22 44/24/24 60/40/40
f 58/42/42 42/20/20 43/22/22 59/41/41
f 57/43/43 41/18/18 42/20/20 58/42/42
f 56/44/44 40/16/16 41/18/18 57/43/43
f 55/45/45 39/14/14 40/16/16 56/44/44
f 54/46/46 38/12/12 39/14/14 55/45/45
f 53/47/47 37/10/10 38/12/12 54/46/46
f 52/48/48 36/8/8 37/10/10 53/47/47
f 51/49/49 35/6/6 36/8/8 52/48/48
f 50/50/50 34/4/4 35/6/6 51/49/49
f 66/51/51 33/1/1 34/4/4 50/50/50
f 33/52/1 66/51/51 50/50/50 67/53/52
f 67/53/52 50/50/50 51/49/49 68/54/53
f 68/54/53 51/49/49 52/48/48 69/55/54
f 69/55/54 52/48/48 53/47/47 70/56/55
f 70/56/55 53/47/47 54/46/46 71/57/56
f 71/57/56 54/46/46 55/45/45 72/58/57
f 72/58/57 55/45/45 56/44/44 73/59/58
f 73/59/58 56/44/44 57/43/43 74/60/59
f 74/60/59 57/43/43 58/42/42 75/61/60
f 75/61/60 58/42/42 59/41/41 76/62/61
f 76/62/61 59/41/41 60/40/40 77/63/62
f 77/63/62 60/40/40 61/39/39 78/64/63
f 78/64/63 61/39/39 62/38/38 79/65/64
f 79/65/64 62/38/38 63/37/37 80/66/65
f 80/66/65 63/37/37 64/35/35 81/67/66
f 81/67/66 64/35/35 65/36/36 49/68/34
f 30/69/67 81/67/66 49/68/34 32/70/33
f 28/71/68 80/66/65 81/67/66 30/69/67
f 26/72/69 79/65/64 80/66/65 28/71/68
f 24/73/70 78/64/63 79/65/64 26/72/69
f 22/74/71 77/63/62 78/64/63 24/73/70
f 20/75/72 76/62/61 77/63/62 22/74/71
f 18/76/73 75/61/60 76/62/61 20/75/72
f 16/77/74 74/60/59 75/61/60 18/76/73
f 14/78/75 73/59/58 74/60/59 16/77/74
f 12/79/76 72/58/57 73/59/58 14/78/75
f 10/80/77 71/57/56 72/58/57 12/79/76
f 8/81/78 70/56/55 71/57/56 10/80/77
f 6/82/79 69/55/54 70/56/55 8/81/78
f 4/83/80 68/54/53 69/55/54 6/82/79
f 2/84/81 67/53/52 68/54/53 4/83/80
f 1/85/2 33/52/1 67/53/52 2/84/81
